<!-- Generated by IcoMoon.io -->
<svg version="1.1" xmlns="http://www.w3.org/2000/svg" width="15143" height="2560" viewBox="0 0 15143 2560">
<title></title>
<g id="icomoon-ignore">
</g>
<path fill="#1a1919" d="M4395.898 987.56l26.982 0.935c31.347 1.102 121.090 15.945 183.285 61.31 44.372 32.392 74.22 73.745 78.185 111.555 4.898 46.6-28.215 98.65-83.18 91.93-85.347-10.362-83.68-105.067-83.68-105.067-17.555-76.888-89.477-97.112-122.122-97.112h-4.93c-24.453 0-160.267 20.828-201.84 283.515-29.148 184.33 50.002 468.612 233.288 472.423 152.005 3.075 221.495-108.11 221.495-108.11l42.508 36.070c0 0-108.533 211.807-321.565 210.942-118.592-0.47-219.295-97.215-266.432-164.207-69.457-98.65-92.842-216.855-98.972-273.385-13.625-125.727 3.032-280.005 140.313-413.52 55.465-53.855 148.507-110.985 256.673-107.275z"></path>
<path fill="#1a1919" d="M12556.002 1146.645c-38.375 16.248-64.725 38.51-67.525 40.383-6.33 4.28-5.563 7.99-5.83 15.178-0.033 1.303-0.5 622.255-0.5 622.255-0.033 47.17 28.982 71.973 79.65 71.572 2.698-0.033 13.193 0 13.193 0v40.718h-375.197v-40.718h10.327c39.943 0 86.745-10.563 87.378-71.572l0.067-515.548-1.6-78.828c-1.6-63.75-50.935-103.397-114.927-103.397 0 0-24.353-0.268-25.385 0-54.733 0-112.198 28.148-132.050 37.24-1.733 0.77-66.492 34.665-66.525 48.372-1.1 0.77-0.6 589.393-0.567 589.76 0.368 93.97 58.63 93.938 82.048 93.938l9.895 0.033v40.717h-380.663v-40.717h16.522c36.678 0 73.82-20.257 76.285-56.563 1.032-15.010 0.567-601.092-0.2-602.197-0.032-48.373-2.132-88.355-63.195-88.355h-12.393v-42.79c0 0 100.603-39.747 142.645-57.332 99.905-41.72 111.163-53.253 121.29-53.253 4.862 0 6.53 2.908 6.53 2.908s0.332 142.41 0.267 142.342c0 0-0.033 12.068 6.862 7.723 46.637-29.217 111.43-77.89 163.13-104.868 18.588-9.695 95.608-47.335 162.765-47.035 4.097 0.032 20.387 0.235 21.985 0.268 79.45 1.873 126.355 62.213 146.442 99.82 10.26 19.255 17.39 49.275 18.522 51.548 0 0 31.38-31.993 79.682-66.693 30.915-22.197 85.845-50.645 87.813-51.715 0 0 76.253-39.982 145.642-39.080l20.155 0.268c75.685 1.002 200.808 78.457 201.507 225.715 0.2 393.030-0.032 585.315-0.032 585.315 0 81.97 62.595 93.97 82.348 93.97 7.562 0.2 9.527 0 9.527 0v40.717h-376.398l-0.232-40.717h9.395c20.753 0 84.015-6.453 84.015-93.97 0 0-0.067-539.282-0.067-546.737 0-30.12-31.647-132.112-146.975-133.115-33.88-0.3-80.715 9.628-115.628 24.438z"></path>
<path fill="#1a1919" d="M3194.65 786.855c2.833 0 10.628-0.168 10.628-0.168l-0.068 220.165c0 11.835 10.293 11.165 10.293 11.165h190.68c3.865 0 9.795-1.17 9.227 6.518l-5.798 77.925h-210.202l-0.133 21.028c0.133-9.125 0 434.982 0 569.57 0 85.48 54.365 120.178 111.198 120.213 55.333 0.068 104.068-45.797 104.068-45.797l27.715 40.483c0 0-18.155 25.072-41.375 47.003-40.007 37.642-112.163 82.102-185.718 82.102h-15.89c-104.8 0-179.32-87.318-181.053-169.185 0-4.612-0.4-625.765-0.4-625.765s0-39.647-66.758-39.647h-33.18l-0.3-48.273c0 0 80.318-61.678 277.060-267.335z"></path>
<path fill="#1a1919" d="M7846.453 1937.033h-22.653c-37.642-85.612-316.635-835.3-454.682-1178.485-0.765 13.74-20.020 996.83-20.020 996.83-1.332 65.688 37.21 140.57 134.815 140.57h11.693l0.232 41.085c-26.582 0-378.695-0.368-378.695-0.368v-40.718h9.26c60.595 0 119.225-42.088 125.855-116.368 0.332-3.043 47.503-1070.842 47.503-1070.842 4.098-92.097-39.11-162.867-164.763-169.755-3.265-0.168-17.855 0-17.855 0v-42.255c0 0 361.807 0.1 372.967 0.1 4.298 0 398.317 1108.785 400.783 1109.62 8.095 2.040 358.875-1022.737 387.625-1109.62h350.28l-0.1 43.19h-34.612c-93.542 0-112.163 70.067-112.83 102.795-1.2 58.467 2.197 1122.19 2.197 1122.19 0.233 89.892 54.265 127.7 129.653 130.942h15.522l0.068 41.085-504.983-0.368v-40.718c0 0 8.195 0 12.625 0 54.065 0.2 131.085 0 131.485-140.37l2.997-1000.707h-4.465c-68.922 189.613-419.902 1182.163-419.902 1182.163z"></path>
<path fill="#1a1919" d="M4931.875 1133.912c0 0-1.132 14.375 2.165 19.023 23.685-17.015 155.602-140.905 286.588-146.923 4.298-0.133 25.45 0.435 35.377 1.737 165.73 21.663 174.79 190.012 174.69 218.795 0 0-1.665 552.987-2.065 552.987 0.4 72.307 13.325 116.435 88.745 116.435h10.392v40.718h-372.568v-40.718h11.060c31.947 0 80.815 0 81.15-94.472 1 0 1.833-485.46 1.8-491.412-0.267-31.39 14.958-154.678-125.188-175.337-26.517-3.878-48.337-3.778-102.87 19.957-12.925 5.615-89.278 39.38-89.278 60.575 0 0-0.068 586.685-0.332 586.685 0 94.003 43.107 94.003 83.047 94.205 2.298 0.033 9.295 0 9.295 0v40.85h-376.73l-0.3-41.050h13.358c82.583 0 85.048-50.68 85.148-115.165 0 0 2.333-1172.602 1.465-1173.003-0.167-62.68-27.45-104.532-89.278-104.532h-14.39v-42.79c0 0 97.505-34.6 280.458-116.435 8.363-3.71 8.395 10.23 8.395 10.23z"></path>
<path fill="#1a1919" d="M509.415 538.678c-119.593-2.54-152.173 39.48-152.205 88.252l-1.233 1138.67c0 0-7.728 132.448 153.438 132.448h97.64c290.918-5.348 450.917-328.342 450.917-663.64 0-556.365-136.515-682.092-447.087-695.732-21.688-0.935-92.010 0.235-101.47 0zM0.268 495.255h713.153c231.055 0 525.070 125.060 567.445 517.82 13.425 124.29 13.225 333.425-20.22 457.815-67.39 250.352-224.492 464.6-526.37 464.6h-734.273l0.268-37.642c123.19 0 149.44-63.55 149.905-120.112l-0.333-1141.445c-0.032-82.638-80.218-97.848-149.572-97.848-0.2 0 0-43.19 0-43.19z"></path>
<path fill="#1a1919" d="M11554.613 1014.753l-0.3 732.805c0 34.665 18.087 47.067 40.443 46.735 25.785-0.4 45.138-5.783 45.138-5.783v50.377c0 0-265.235 103.597-273.695 103.665-2.097 0.033-3.698-2.907-3.698-6.185v-156.95h-6.095c-2.665 2.707-159.167 159.39-265.1 159.39h-28.15c-34.413 0-123.722-22.298-177.122-115.23 0 0-25.685-47.637-25.685-100.555v-566.46c0-58.267-50.235-58.267-68.058-58.267h-19.52c-1.5 0-6.663 0-6.83-5.55-0.033-1.737 0-32.76 0-32.76s259.738-40.082 274.795-42.322c4.565-0.703 5.63 3.645 5.63 3.645s-0.567 668.253-0.467 677.045c0.2 79.895 100.638 110.952 148.64 109.615 40.208-1.17 80.515-16.883 127.653-51.85 18.688-13.84 41.575-31.155 41.575-53.955 0-60.408 0.167-438.793 0-549.245-0.068-36.070-24.818-58.97-57.398-57.9-5.563 0.2-33.080 0-38.443 0-4.962 0-5.497-5.918-5.497-5.918v-32.827c0 0 110.097-12.97 287.22-41.52 0.632-0.132 4.962 0 4.962 0z"></path>
<path fill="#1a1919" d="M9973.18 1053.148l-0.033 151.602c-2.997 10.33-14.79 9.495-14.79 9.495l-33.48-0.033v-2.475c0-37.608-41.007-162.368-166.863-163.203h-4.697c-82.215 0.2-111.13 46.767-111.23 100.255-0.233 85.68 126.288 196.632 196.378 260.95 78.817 72.34 181.32 156.082 177.688 315.94-3.265 145.385-138.747 214.383-292.65 214.952-83.847 0.3-224.225-41.22-224.225-41.22v-166.11c0-6.82-0.733-7.255 9.027-8.425l36.078-4.28c0 0 2.365 6.887 14.958 33.063 11.96 24.805 27.118 57.632 62.595 83.105 55.733 39.983 132.118 51.582 190.415 9.16 29.98-21.795 73.188-101.39 1.365-199.205-55.065-74.983-273.895-219.865-321.898-370.698-7.595-23.835-14.39-77.99-4.53-114.595 26.582-98.65 92.942-162.232 256.14-170.39 66.358-3.342 170.693 24.972 223.528 51.915 3.33 1.705 6.195 1.070 6.23 10.195z"></path>
<path fill="#1a1919" d="M9358.202 1014.753l-0.267 732.805c-0.032 34.665 18.088 47.135 40.408 46.735 25.785-0.4 45.137-5.783 45.137-5.783v50.377c0 0-265.235 103.63-273.663 103.665-2.132 0.033-3.698-2.907-3.698-6.185v-156.95h-6.095c-2.665 2.74-159.2 159.39-265.135 159.39h-28.115c-34.445 0-123.723-22.298-177.155-115.23 0 0-25.685-47.67-25.685-100.555v-566.428c0-58.3-50.203-58.3-68.025-58.3h-19.555c-1.5 0-6.63 0-6.795-5.55-0.068-1.705 0-32.795 0-32.795s259.737-40.048 274.76-42.288c4.597-0.702 5.662 3.71 5.662 3.71s-0.6 668.185-0.5 677.012c0.2 79.863 100.703 110.917 148.64 109.582 40.243-1.17 80.55-16.883 127.653-51.815 18.755-13.872 41.575-31.122 41.575-53.955 0-60.44 0.167-438.828 0-549.278-0.068-36.070-24.785-58.902-57.397-57.865-5.563 0.2-33.045 0-38.443 0-4.962 0-5.497-5.95-5.497-5.95v-32.795c0 0 110.13-13.005 287.252-41.553 0.6-0.1 4.93 0 4.93 0z"></path>
<path fill="#1a1919" d="M6723.977 1053.148l-0.033 151.602c-2.997 10.33-14.79 9.495-14.79 9.495l-33.48-0.033v-2.475c0-37.608-41.007-162.368-166.863-163.203h-4.697c-82.215 0.2-111.097 46.767-111.263 100.255-0.2 85.68 126.32 196.632 196.41 260.95 78.818 72.34 181.32 156.082 177.687 315.94-3.297 145.385-138.747 214.383-292.617 214.952-83.88 0.3-224.26-41.22-224.26-41.22v-166.11c0-6.82-0.7-7.255 9.028-8.425l36.078-4.28c0 0 2.365 6.887 14.958 33.063 11.96 24.805 27.118 57.632 62.595 83.105 55.733 39.983 132.118 51.582 190.415 9.16 29.98-21.795 73.188-101.39 1.365-199.205-55.065-74.983-273.895-219.865-321.898-370.698-7.595-23.835-14.39-77.99-4.53-114.595 26.617-98.65 92.943-162.232 256.14-170.39 66.358-3.342 170.693 24.972 223.528 51.915 3.33 1.705 6.195 1.070 6.23 10.195z"></path>
<path fill="#1a1919" d="M3944.745 1053.148l-0.032 151.602c-2.998 10.33-14.825 9.495-14.825 9.495l-33.445-0.033v-2.475c0-37.608-41.008-162.368-166.863-163.203h-4.698c-82.215 0.2-111.097 46.767-111.262 100.255-0.2 85.68 126.32 196.632 196.41 260.95 78.818 72.34 181.32 156.082 177.688 315.94-3.297 145.385-138.747 214.383-292.617 214.952-83.88 0.3-224.26-41.22-224.26-41.22v-166.11c0-6.82-0.733-7.255 9.028-8.425l36.078-4.28c0 0 2.365 6.887 14.957 33.063 11.96 24.805 27.118 57.632 62.595 83.105 55.732 39.983 132.117 51.582 190.415 9.16 29.98-21.795 73.188-101.39 1.365-199.205-55.065-74.983-273.895-219.865-321.898-370.698-7.595-23.835-14.425-77.99-4.53-114.595 26.617-98.65 92.943-162.232 256.14-170.39 66.325-3.342 170.693 24.972 223.528 51.915 3.33 1.705 6.195 1.070 6.23 10.195z"></path>
<path fill="#1a1919" d="M1758.293 1055.692c-11.492-3.142-25.983-4.145-43.34-1.437-56.397 8.692-104.168 73.677-118.36 95.107-45.805 69.065-61.327 159.39-61.327 159.39h229.123c32.547 0 75.453-3.41 77.752-74.615 0 0 14.758-151.502-83.847-178.445zM1740.37 988.233c83.148 0 182.22 32.428 236.917 117.438 22.085 34.332 57.365 94.505 54.6 245.773 0.033 4.412 0 18.987 0 18.987l-493.925-0.2c-9.895 0-9.895 6.652-9.895 9.695 0 3.442 0.168 58.235 0.168 58.235s5.497 107.14 31.215 170.29c41.34 101.457 99.438 196.097 219.095 195.762 126.855-0.368 209.102-105.102 209.102-105.102l42.872 35.635c0 0-109.865 214.885-334.858 204.020-130.652-6.285-371.867-158.923-337.787-526.213 22.552-243.3 179.287-424.32 382.492-424.32z"></path>
<path fill="#1a1919" d="M2825.347 1014.753l-0.267 732.805c-0.032 34.665 18.087 47.135 40.407 46.735 25.785-0.4 45.105-5.783 45.105-5.783v50.377c0 0-265.235 103.63-273.695 103.665-2.065 0.033-3.63-2.907-3.63-6.185v-156.95h-6.13c-2.697 2.74-159.168 159.39-265.135 159.39h-28.115c-34.445 0-123.69-22.298-177.155-115.23 0 0-25.65-47.67-25.65-100.555v-566.428c0-58.3-50.202-58.3-68.025-58.3h-19.555c-1.465 0-6.662 0-6.795-5.55-0.068-1.705 0-32.795 0-32.795s259.737-40.048 274.76-42.288c4.565-0.702 5.662 3.71 5.662 3.71s-0.633 668.185-0.5 677.012c0.232 79.863 100.67 110.917 148.64 109.582 40.242-1.17 80.515-16.883 127.653-51.815 18.688-13.872 41.54-31.122 41.54-53.955 0-60.44 0.2-438.828 0-549.278-0.068-36.070-24.75-58.902-57.398-57.865-5.563 0.2-33.045 0-38.41 0-4.963 0-5.53-5.95-5.53-5.95v-32.795c0 0 110.165-13.005 287.253-41.553 0.632-0.1 4.962 0 4.962 0z"></path>
<path fill="#1a1919" d="M5906.247 1055.692c-11.493-3.142-25.985-4.145-43.373-1.437-56.365 8.692-104.167 73.677-118.325 95.107-45.837 69.065-61.363 159.39-61.363 159.39h229.122c32.58 0 75.453-3.41 77.785-74.615 0 0 14.725-151.502-83.848-178.445zM5888.292 988.233c83.148 0 182.253 32.428 236.917 117.438 22.12 34.332 57.398 94.505 54.6 245.773 0.033 4.412 0 18.987 0 18.987l-493.925-0.2c-9.86 0-9.86 6.652-9.86 9.695 0 3.442 0.167 58.235 0.167 58.235s5.498 107.14 31.18 170.29c41.375 101.457 99.47 196.097 219.095 195.762 126.888-0.368 209.102-105.102 209.102-105.102l42.908 35.635c0 0-109.865 214.885-334.89 204.020-130.653-6.285-371.867-158.923-337.788-526.213 22.553-243.3 179.32-424.32 382.495-424.32z"></path>
<path fill="#1a1919" d="M10463.563 1055.692c-11.525-3.142-25.983-4.145-43.405-1.437-56.365 8.692-104.168 73.677-118.293 95.107-45.837 69.065-61.362 159.39-61.362 159.39h229.122c32.548 0 75.452-3.41 77.785-74.615 0 0 14.725-151.502-83.847-178.445zM10445.608 988.233c83.147 0 182.252 32.428 236.885 117.438 22.12 34.332 57.43 94.505 54.632 245.773 0.033 4.412 0 18.987 0 18.987l-493.925-0.2c-9.86 0-9.86 6.652-9.86 9.695 0 3.442 0.167 58.235 0.167 58.235s5.497 107.14 31.148 170.29c41.375 101.457 99.505 196.097 219.095 195.762 126.92-0.368 209.135-105.102 209.135-105.102l42.907 35.635c0 0-109.865 214.885-334.858 204.020-130.685-6.285-371.868-158.923-337.823-526.213 22.553-243.3 179.288-424.32 382.495-424.32z"></path>
<path fill="#000" d="M13881.13 0v40.432l196.49 90.592h-196.49v37.078h365.77z"></path>
<path fill="#000" d="M15027.352 0l-365.77 168.102h365.77v-37.078h-196.462l196.462-90.592z"></path>
<path fill="#000" d="M14490.545 2521.56c0-119.205 91.142-212.492 161.3-228.325 51.5 206.555 11.092 33.972 56.69 228.325z"></path>
<path fill="#000" d="M14760.418 2521.56c44.122-194.847 8.005-33.835 52.702-228.325 74.313 11.242 160.29 109.12 160.29 228.325z"></path>
<path fill="#000" d="M14203.68 462.295c0 16.465-13.278 29.795-29.67 29.795-16.337 0-29.642-13.33-29.642-29.795s13.305-29.822 29.642-29.822c16.392 0 29.67 13.357 29.67 29.822z"></path>
<path fill="#000" d="M14776.85 460.037c0 16.465-13.25 29.822-29.642 29.822s-29.643-13.357-29.643-29.822c0-16.465 13.25-29.822 29.643-29.822s29.642 13.357 29.642 29.822z"></path>
<path fill="#000" d="M14987.573 460.037c0-133.498-107.698-241.848-240.368-241.848s-240.368 108.35-240.368 241.848c0 133.498 107.697 241.848 240.368 241.848s240.368-108.35 240.368-241.847zM14925.855 460.010c0 99.225-80.023 179.73-178.65 179.73-98.6 0-178.622-80.505-178.622-179.73 0-99.17 80.022-179.702 178.622-179.702 98.628 0 178.65 80.532 178.65 179.702z"></path>
<path fill="#000" d="M14423.522 560.535h74.613l-42.182 213.813c-31.855-201.17-2.050-23.83-32.43-213.813z"></path>
<path fill="#000" d="M13897.762 1036.678c0 27.43-22.13 49.695-49.368 49.695-27.265 0-49.368-22.262-49.368-49.695s22.103-49.695 49.368-49.695c27.238 0 49.368 22.262 49.368 49.695z"></path>
<path fill="#000" d="M14123.050 1036.678c0 27.43-22.158 49.695-49.395 49.695-27.265 0-49.368-22.262-49.368-49.695s22.103-49.695 49.368-49.695c27.238 0 49.395 22.262 49.395 49.695z"></path>
<path fill="#000" d="M14348.313 1036.678c0 27.43-22.13 49.695-49.395 49.695s-49.395-22.262-49.395-49.695c0-27.43 22.13-49.695 49.395-49.695s49.395 22.262 49.395 49.695z"></path>
<path fill="#000" d="M14571.333 1036.678c0 27.43-22.158 49.695-49.395 49.695-27.265 0-49.368-22.262-49.368-49.695s22.103-49.695 49.368-49.695c27.238 0 49.395 22.262 49.395 49.695z"></path>
<path fill="#000" d="M14794.38 1036.678c0 27.43-22.158 49.695-49.423 49.695s-49.368-22.262-49.368-49.695c0-27.43 22.103-49.695 49.368-49.695s49.423 22.262 49.423 49.695z"></path>
<path fill="#000" d="M15017.4 1036.678c0 27.43-22.157 49.695-49.395 49.695-27.265 0-49.368-22.262-49.368-49.695s22.103-49.695 49.368-49.695c27.238 0 49.395 22.262 49.395 49.695z"></path>
<path fill="#000" d="M13897.762 1480.935c0 27.43-22.13 49.695-49.368 49.695-27.265 0-49.368-22.262-49.368-49.695s22.103-49.722 49.368-49.722c27.238 0 49.368 22.29 49.368 49.722z"></path>
<path fill="#000" d="M14123.050 1480.935c0 27.43-22.158 49.695-49.395 49.695-27.265 0-49.368-22.262-49.368-49.695s22.103-49.722 49.368-49.722c27.238 0 49.395 22.29 49.395 49.722z"></path>
<path fill="#000" d="M14123.050 1925.19c0 27.43-22.158 49.723-49.395 49.723-27.265 0-49.368-22.29-49.368-49.723s22.103-49.695 49.368-49.695c27.238 0 49.395 22.263 49.395 49.695z"></path>
<path fill="#000" d="M14348.313 1480.935c0 27.43-22.13 49.695-49.395 49.695s-49.395-22.262-49.395-49.695c0-27.43 22.13-49.722 49.395-49.722s49.395 22.29 49.395 49.722z"></path>
<path fill="#000" d="M14571.333 1480.935c0 27.43-22.158 49.695-49.395 49.695-27.265 0-49.368-22.262-49.368-49.695s22.103-49.722 49.368-49.722c27.238 0 49.395 22.29 49.395 49.722z"></path>
<path fill="#000" d="M13897.762 1925.19c0 27.43-22.13 49.723-49.368 49.723-27.265 0-49.368-22.29-49.368-49.723s22.103-49.695 49.368-49.695c27.238 0 49.368 22.263 49.368 49.695z"></path>
<path fill="#000" d="M13897.762 2369.448c0 27.43-22.13 49.695-49.368 49.695-27.265 0-49.368-22.262-49.368-49.695s22.103-49.695 49.368-49.695c27.238 0 49.368 22.262 49.368 49.695z"></path>
<path fill="#000" d="M13897.762 1341.815c0 27.43-22.13 49.722-49.368 49.722-27.265 0-49.368-22.29-49.368-49.722 0-27.403 22.103-49.668 49.368-49.668 27.238 0 49.368 22.263 49.368 49.668z"></path>
<path fill="#000" d="M14123.050 1341.815c0 27.43-22.158 49.722-49.395 49.722-27.265 0-49.368-22.29-49.368-49.722 0-27.403 22.103-49.668 49.368-49.668 27.238 0 49.395 22.263 49.395 49.668z"></path>
<path fill="#000" d="M14123.050 1786.070c0 27.43-22.158 49.695-49.395 49.695-27.265 0-49.368-22.263-49.368-49.695s22.103-49.667 49.368-49.667c27.238 0 49.395 22.235 49.395 49.667z"></path>
<path fill="#000" d="M14123.050 2230.327c0 27.43-22.158 49.723-49.395 49.723-27.265 0-49.368-22.29-49.368-49.723s22.103-49.695 49.368-49.695c27.238 0 49.395 22.262 49.395 49.695z"></path>
<path fill="#000" d="M14348.313 1341.815c0 27.43-22.13 49.722-49.395 49.722s-49.395-22.29-49.395-49.722c0-27.403 22.13-49.668 49.395-49.668s49.395 22.263 49.395 49.668z"></path>
<path fill="#000" d="M14348.313 1786.070c0 27.43-22.13 49.695-49.395 49.695s-49.395-22.263-49.395-49.695c0-27.43 22.13-49.667 49.395-49.667s49.395 22.235 49.395 49.667z"></path>
<path fill="#000" d="M14571.333 1341.815c0 27.43-22.158 49.722-49.395 49.722-27.265 0-49.368-22.29-49.368-49.722 0-27.403 22.103-49.668 49.368-49.668 27.238 0 49.395 22.263 49.395 49.668z"></path>
<path fill="#000" d="M14794.38 1341.815c0 27.43-22.158 49.722-49.423 49.722s-49.368-22.29-49.368-49.722c0-27.403 22.103-49.668 49.368-49.668s49.423 22.263 49.423 49.668z"></path>
<path fill="#000" d="M13897.762 1786.070c0 27.43-22.13 49.695-49.368 49.695-27.265 0-49.368-22.263-49.368-49.695s22.103-49.667 49.368-49.667c27.238 0 49.368 22.235 49.368 49.667z"></path>
<path fill="#000" d="M13897.762 2230.327c0 27.43-22.13 49.723-49.368 49.723-27.265 0-49.368-22.29-49.368-49.723s22.103-49.695 49.368-49.695c27.238 0 49.368 22.262 49.368 49.695z"></path>
<path fill="#000" d="M14009.313 1121.955c0 27.43-22.157 49.695-49.423 49.695s-49.368-22.262-49.368-49.695c0-27.43 22.103-49.723 49.368-49.723s49.423 22.29 49.423 49.723z"></path>
<path fill="#000" d="M14009.313 1563.955c0 27.43-22.157 49.695-49.423 49.695s-49.368-22.262-49.368-49.695c0-27.43 22.103-49.695 49.368-49.695s49.423 22.263 49.423 49.695z"></path>
<path fill="#000" d="M14009.313 2008.185c0 27.43-22.157 49.723-49.423 49.723s-49.368-22.29-49.368-49.723c0-27.402 22.103-49.695 49.368-49.695s49.423 22.29 49.423 49.695z"></path>
<path fill="#000" d="M14009.313 1261.047c0 27.43-22.157 49.695-49.423 49.695s-49.368-22.263-49.368-49.695c0-27.43 22.103-49.695 49.368-49.695s49.423 22.262 49.423 49.695z"></path>
<path fill="#000" d="M14009.313 1703.075c0 27.43-22.157 49.667-49.423 49.667s-49.368-22.235-49.368-49.667c0-27.43 22.103-49.695 49.368-49.695s49.423 22.263 49.423 49.695z"></path>
<path fill="#000" d="M14009.313 2147.33c0 27.43-22.157 49.695-49.423 49.695s-49.368-22.262-49.368-49.695c0-27.43 22.103-49.75 49.368-49.75s49.423 22.318 49.423 49.75z"></path>
<path fill="#000" d="M14234.572 1121.955c0 27.43-22.157 49.695-49.423 49.695s-49.368-22.262-49.368-49.695c0-27.43 22.103-49.723 49.368-49.723s49.423 22.29 49.423 49.723z"></path>
<path fill="#000" d="M14234.572 1563.955c0 27.43-22.157 49.695-49.423 49.695s-49.368-22.262-49.368-49.695c0-27.43 22.103-49.695 49.368-49.695s49.423 22.263 49.423 49.695z"></path>
<path fill="#000" d="M14234.572 2008.185c0 27.43-22.157 49.723-49.423 49.723s-49.368-22.29-49.368-49.723c0-27.402 22.103-49.695 49.368-49.695s49.423 22.29 49.423 49.695z"></path>
<path fill="#000" d="M14234.572 1261.047c0 27.43-22.157 49.695-49.423 49.695s-49.368-22.263-49.368-49.695c0-27.43 22.103-49.695 49.368-49.695s49.423 22.262 49.423 49.695z"></path>
<path fill="#000" d="M14234.572 1703.075c0 27.43-22.157 49.667-49.423 49.667s-49.368-22.235-49.368-49.667c0-27.43 22.103-49.695 49.368-49.695s49.423 22.263 49.423 49.695z"></path>
<path fill="#000" d="M14459.81 1121.955c0 27.43-22.13 49.695-49.395 49.695s-49.34-22.262-49.34-49.695c0-27.43 22.075-49.723 49.34-49.723s49.395 22.29 49.395 49.723z"></path>
<path fill="#000" d="M14459.81 1563.955c0 27.43-22.13 49.695-49.395 49.695s-49.34-22.262-49.34-49.695c0-27.43 22.075-49.695 49.34-49.695s49.395 22.263 49.395 49.695z"></path>
<path fill="#000" d="M14459.81 1261.047c0 27.43-22.13 49.695-49.395 49.695s-49.34-22.263-49.34-49.695c0-27.43 22.075-49.695 49.34-49.695s49.395 22.262 49.395 49.695z"></path>
<path fill="#000" d="M14459.81 1703.075c0 27.43-22.13 49.667-49.395 49.667s-49.34-22.235-49.34-49.667c0-27.43 22.075-49.695 49.34-49.695s49.395 22.263 49.395 49.695z"></path>
<path fill="#000" d="M14682.858 1121.955c0 27.43-22.158 49.695-49.395 49.695-27.265 0-49.368-22.262-49.368-49.695s22.103-49.723 49.368-49.723c27.237 0 49.395 22.29 49.395 49.723z"></path>
<path fill="#000" d="M14682.858 1261.047c0 27.43-22.158 49.695-49.395 49.695-27.265 0-49.368-22.263-49.368-49.695s22.103-49.695 49.368-49.695c27.237 0 49.395 22.262 49.395 49.695z"></path>
<path fill="#000" d="M14905.877 1121.955c0 27.43-22.13 49.695-49.395 49.695-27.238 0-49.368-22.262-49.368-49.695s22.13-49.723 49.368-49.723c27.265 0 49.395 22.29 49.395 49.723z"></path>
<path fill="#000" d="M14905.877 1261.047c0 27.43-22.13 49.695-49.395 49.695-27.238 0-49.368-22.263-49.368-49.695s22.13-49.695 49.368-49.695c27.265 0 49.395 22.262 49.395 49.695z"></path>
<path fill="#000" d="M14123.050 897.558c0 27.43-22.158 49.722-49.395 49.722-27.265 0-49.368-22.29-49.368-49.722s22.103-49.668 49.368-49.668c27.238 0 49.395 22.235 49.395 49.668z"></path>
<path fill="#000" d="M14348.313 897.558c0 27.43-22.13 49.722-49.395 49.722s-49.395-22.29-49.395-49.722c0-27.43 22.13-49.668 49.395-49.668s49.395 22.235 49.395 49.668z"></path>
<path fill="#000" d="M14571.333 897.558c0 27.43-22.158 49.722-49.395 49.722-27.265 0-49.368-22.29-49.368-49.722s22.103-49.668 49.368-49.668c27.238 0 49.395 22.235 49.395 49.668z"></path>
<path fill="#000" d="M14794.38 897.558c0 27.43-22.158 49.722-49.423 49.722s-49.368-22.29-49.368-49.722c0-27.43 22.103-49.668 49.368-49.668s49.423 22.235 49.423 49.668z"></path>
<path fill="#000" d="M15017.4 897.558c0 27.43-22.157 49.722-49.395 49.722-27.265 0-49.368-22.29-49.368-49.722s22.103-49.668 49.368-49.668c27.238 0 49.395 22.235 49.395 49.668z"></path>
<path fill="#000" d="M15137.863 969.388c0 27.402-22.158 49.695-49.423 49.695-27.238 0-49.368-22.29-49.368-49.695 0-27.43 22.13-49.723 49.368-49.723 27.265 0 49.423 22.29 49.423 49.723z"></path>
<path fill="#000" d="M13992.85 967.133c0 18.277-14.752 33.093-32.948 33.093-18.167 0-32.948-14.815-32.948-33.093s14.78-33.093 32.948-33.093c18.195 0 32.948 14.815 32.948 33.093z"></path>
<path fill="#000" d="M13992.85 1411.387c0 18.305-14.752 33.148-32.948 33.148-18.167 0-32.948-14.842-32.948-33.148 0-18.278 14.78-33.148 32.948-33.148 18.195 0 32.948 14.87 32.948 33.148z"></path>
<path fill="#000" d="M13992.85 1855.617c0 18.305-14.752 33.148-32.948 33.148-18.167 0-32.948-14.842-32.948-33.148 0-18.278 14.78-33.092 32.948-33.092 18.195 0 32.948 14.815 32.948 33.092z"></path>
<path fill="#000" d="M13992.85 2299.9c0 18.278-14.752 33.148-32.948 33.148-18.167 0-32.948-14.87-32.948-33.148 0-18.305 14.78-33.148 32.948-33.148 18.195 0 32.948 14.843 32.948 33.148z"></path>
<path fill="#000" d="M14218.112 967.133c0 18.277-14.752 33.093-32.948 33.093-18.167 0-32.922-14.815-32.922-33.093s14.752-33.093 32.922-33.093c18.195 0 32.948 14.815 32.948 33.093z"></path>
<path fill="#000" d="M14218.112 1411.387c0 18.305-14.752 33.148-32.948 33.148-18.167 0-32.922-14.842-32.922-33.148 0-18.278 14.752-33.148 32.922-33.148 18.195 0 32.948 14.87 32.948 33.148z"></path>
<path fill="#000" d="M14218.112 1855.617c0 18.305-14.752 33.148-32.948 33.148-18.167 0-32.922-14.842-32.922-33.148 0-18.278 14.752-33.092 32.922-33.092 18.195 0 32.948 14.815 32.948 33.092z"></path>
<path fill="#000" d="M14441.108 967.133c0 18.277-14.752 33.093-32.895 33.093-18.167 0-32.895-14.815-32.895-33.093s14.725-33.093 32.895-33.093c18.14 0 32.895 14.815 32.895 33.093z"></path>
<path fill="#000" d="M14441.108 1411.387c0 18.305-14.752 33.148-32.895 33.148-18.167 0-32.895-14.842-32.895-33.148 0-18.278 14.725-33.148 32.895-33.148 18.14 0 32.895 14.87 32.895 33.148z"></path>
<path fill="#000" d="M14664.18 967.133c0 18.277-14.752 33.093-32.948 33.093s-32.922-14.815-32.922-33.093c0-18.278 14.725-33.093 32.922-33.093s32.948 14.815 32.948 33.093z"></path>
<path fill="#000" d="M14664.18 1411.387c0 18.305-14.752 33.148-32.948 33.148s-32.922-14.842-32.922-33.148c0-18.278 14.725-33.148 32.922-33.148s32.948 14.87 32.948 33.148z"></path>
<path fill="#000" d="M14889.417 967.133c0 18.277-14.78 33.093-32.895 33.093-18.167 0-32.895-14.815-32.895-33.093s14.725-33.093 32.895-33.093c18.112 0 32.895 14.815 32.895 33.093z"></path>
<path fill="#000" d="M13883.567 1191.5c0 18.305-14.78 33.12-32.948 33.12s-32.923-14.815-32.923-33.12c0-18.305 14.753-33.148 32.923-33.148s32.948 14.843 32.948 33.148z"></path>
<path fill="#000" d="M14106.563 1191.5c0 18.305-14.752 33.12-32.895 33.12-18.167 0-32.895-14.815-32.895-33.12s14.725-33.148 32.895-33.148c18.14 0 32.895 14.843 32.895 33.148z"></path>
<path fill="#000" d="M14106.563 2077.76c0 18.305-14.752 33.175-32.895 33.175-18.167 0-32.895-14.87-32.895-33.175 0-18.278 14.725-33.148 32.895-33.148 18.14 0 32.895 14.87 32.895 33.148z"></path>
<path fill="#000" d="M14329.635 1191.5c0 18.305-14.78 33.12-32.948 33.12-18.195 0-32.948-14.815-32.948-33.12s14.753-33.148 32.948-33.148c18.167 0 32.948 14.843 32.948 33.148z"></path>
<path fill="#000" d="M14329.635 1633.502c0 18.278-14.78 33.148-32.948 33.148-18.195 0-32.948-14.87-32.948-33.148 0-18.305 14.753-33.148 32.948-33.148 18.167 0 32.948 14.842 32.948 33.148z"></path>
<path fill="#000" d="M14554.87 1191.5c0 18.305-14.753 33.12-32.922 33.12-18.14 0-32.868-14.815-32.868-33.12s14.725-33.148 32.868-33.148c18.167 0 32.922 14.843 32.922 33.148z"></path>
<path fill="#000" d="M14554.87 1633.502c0 18.278-14.753 33.148-32.922 33.148-18.14 0-32.868-14.87-32.868-33.148 0-18.305 14.725-33.148 32.868-33.148 18.167 0 32.922 14.842 32.922 33.148z"></path>
<path fill="#000" d="M14780.16 1191.5c0 18.305-14.752 33.12-32.947 33.12s-32.923-14.815-32.923-33.12c0-18.305 14.725-33.148 32.923-33.148s32.947 14.843 32.947 33.148z"></path>
<path fill="#000" d="M13883.567 1633.502c0 18.278-14.78 33.148-32.948 33.148s-32.923-14.87-32.923-33.148c0-18.305 14.753-33.148 32.923-33.148s32.948 14.842 32.948 33.148z"></path>
<path fill="#000" d="M13883.567 2077.76c0 18.305-14.78 33.175-32.948 33.175s-32.923-14.87-32.923-33.175c0-18.278 14.753-33.148 32.923-33.148s32.948 14.87 32.948 33.148z"></path>
<path fill="#000" d="M13883.567 2522.040c0 18.278-14.78 33.093-32.948 33.093s-32.923-14.815-32.923-33.093c0-18.305 14.753-33.148 32.923-33.148s32.948 14.843 32.948 33.148z"></path>
<path fill="#000" d="M13897.762 897.558c0 27.43-22.13 49.722-49.368 49.722-27.265 0-49.368-22.29-49.368-49.722s22.103-49.668 49.368-49.668c27.238 0 49.368 22.235 49.368 49.668z"></path>
<path fill="#000" d="M14414.425 460.037c0-133.498-107.67-241.848-240.395-241.848s-240.423 108.35-240.423 241.848c0 133.498 107.698 241.848 240.423 241.848s240.395-108.35 240.395-241.847zM14352.653 460.010c0 99.225-79.995 179.73-178.622 179.73s-178.65-80.505-178.65-179.73c0-99.17 80.022-179.702 178.65-179.702s178.622 80.532 178.622 179.702z"></path>
</svg>
